<svg xmlns="http://www.w3.org/2000/svg" viewBox="0 0 96 96" role="img" aria-labelledby="title desc">
  <title id="title">Partly cloudy weather</title>
  <desc id="desc">A sun partly covered by a cloud.</desc>
  <circle cx="35" cy="35" r="18" fill="#f3c96b"/>
  <g stroke="#f3c96b" stroke-width="6" stroke-linecap="round">
    <path d="M35 7v9"/>
    <path d="M35 54v9"/>
    <path d="M7 35h9"/>
    <path d="M54 35h9"/>
    <path d="M15 15l7 7"/>
    <path d="M55 55l7 7"/>
    <path d="M55 15l-7 7"/>
  </g>
  <path
    d="M30 72h37c10 0 18-7 18-16s-8-16-18-16c-3 0-6 1-9 2-4-8-12-13-21-13-13 0-24 10-24 23 0 11 7 20 17 20z"
    fill="#ffffff"
    stroke="#0f6f84"
    stroke-width="5"
    stroke-linejoin="round"
  />
</svg>
